<?xml version="1.0" encoding="UTF-8"?>
<svg id="Layer_2" data-name="Layer 2" xmlns="http://www.w3.org/2000/svg" width="130.18mm" height="123.11mm" viewBox="0 0 369 348.99">
  <defs>
    <style>
      .cls-1 {
        fill: rgba(84, 83, 82, .1);
      }

      .cls-1, .cls-2 {
        stroke-width: 0px;
      }

      .cls-2 {
        fill: #f7beca;
      }
    </style>
  </defs>
  <g id="Layer_1-2" data-name="Layer 1">
    <path class="cls-2" d="m.02,170.92c.2-3.39,2.14-6.46,5.46-8.77-1.27-3.76-1.03-7.31.76-10.1,2.35-3.69,6.82-5.48,12.59-5.03,3.96.31,8.3,1.71,12.48,3.92-2.51-12.18.93-22.54,8.51-24.54,3.27-.85,6.79.05,10.02,2.49,3.18-2.36,6.64-3.24,9.85-2.4,7.37,1.91,10.85,11.73,8.78,23.45,6.59-3.74,13.51-5.3,18.84-4.13,3.15.69,5.62,2.31,7.14,4.68,1.83,2.86,2.06,6.48.74,10.29,3.23,2.3,5.13,5.32,5.32,8.64.46,7.6-7.79,14-19.61,15.65.61.56,1.23,1.1,1.79,1.69,16.48.1,29.59.04,38.91-.17,6.55-.1,12.66,1.6,18.15,4.12l-21.49-23.61c-1.11-1.22-1.36-2.99-.62-4.46l5.18-10.39-15.5-6.74c-2.02-.88-2.95-3.23-2.07-5.25.88-2.02,3.22-2.95,5.25-2.07l15.88,6.91,7.45-14.93-3.12-7.79c-1.26,3.19-3.34,5.54-6.12,6.61-1.17.46-2.4.7-3.67.7-1.58,0-3.21-.36-4.85-1.07-4.76-2.06-9.23-6.93-12.38-13.32-2.1,4.5-4.86,8.4-8.01,11.1-3.13,2.68-6.39,4.06-9.47,4.06-1.25,0-2.47-.23-3.64-.69-3.16-1.23-5.48-4.03-6.66-7.91-.07,0-.13,0-.19,0-3.88,0-7.12-1.33-9.19-3.85-2.78-3.37-3.09-8.17-.89-13.52,1.47-3.57,4.02-7.15,7.27-10.36-12.32-1.4-21.03-7.92-20.57-15.72.2-3.39,2.14-6.45,5.46-8.77-1.27-3.76-1.03-7.31.76-10.1,2.35-3.69,6.77-5.48,12.59-5.03,3.97.31,8.3,1.71,12.48,3.93-2.51-12.18.92-22.55,8.51-24.54,3.28-.85,6.8.05,10.02,2.49,3.18-2.36,6.64-3.23,9.85-2.4,7.36,1.91,10.85,11.73,8.77,23.45,6.59-3.74,13.51-5.29,18.84-4.13,3.15.69,5.62,2.31,7.14,4.68,1.82,2.86,2.06,6.48.74,10.29,3.23,2.3,5.12,5.32,5.32,8.64.46,7.59-7.76,13.98-19.55,15.64,5.57,5.11,9.17,11.19,9.7,16.62.32,3.21-.46,6.05-2.25,8.22-.72.87-1.59,1.56-2.54,2.14l3.73,9.32c.42,1.05.38,2.24-.14,3.26l-8.98,17.99c.07.66.04,1.35-.25,2-.35.81-.96,1.43-1.67,1.84l-4.88,9.78,34.65,38.07,5.33-19.83-19.68-21.8c-1.05-1.16-1.32-2.82-.7-4.25l8.74-20.22c.87-2.02,3.23-2.95,5.24-2.08,1.36.59,2.17,1.86,2.32,3.24.56-2.86,2.33-5.46,5.22-7.47-1.27-3.76-1.03-7.31.76-10.1.36-.57.86-1,1.32-1.48-6.81-8.92-14.38-19.04-14.38-19.04-.64-.85-.91-1.92-.75-2.98.15-1.05.73-2,1.58-2.63l12.83-9.43-16.59-30.49c-1.06-1.93-.34-4.36,1.59-5.41,1.94-1.05,4.36-.34,5.41,1.6l18.26,33.55c.95,1.75.47,3.94-1.14,5.12l-12.39,9.1c2.99,3.98,8.27,10.98,12.96,17.11,1.22-.14,2.51-.18,3.89-.07,2.86.22,5.92,1.05,8.98,2.3l2.76-3.71c-.63-9.76,2.8-17.51,9.24-19.2.11-.03.21-.02.32-.04l.82-5.45c-3.42-.24-6.22-1.47-8.07-3.75-4.79-5.82-1.93-15.69,6.46-23.93-5.06-.58-9.76-2.02-13.39-4.24-4.94-3.02-7.52-7.08-7.26-11.43.2-3.39,2.14-6.46,5.46-8.77-1.27-3.76-1.03-7.31.76-10.1,2.35-3.69,6.81-5.49,12.59-5.03,3.96.31,8.3,1.71,12.48,3.93-2.51-12.18.92-22.54,8.5-24.54,3.27-.86,6.79.05,10.02,2.49,3.18-2.36,6.64-3.23,9.85-2.39,7.36,1.91,10.85,11.73,8.78,23.45,6.59-3.74,13.5-5.3,18.84-4.13,3.15.69,5.62,2.31,7.14,4.68,1.82,2.86,2.06,6.48.74,10.29,3.23,2.3,5.13,5.32,5.32,8.64.46,7.6-7.79,14-19.61,15.64,3.76,3.44,6.72,7.37,8.36,11.3,2.22,5.34,1.92,10.14-.85,13.54-2.15,2.6-5.5,3.93-9.57,3.86-1.18,3.78-3.46,6.51-6.55,7.72-1.17.46-2.39.69-3.66.69-1.59,0-3.23-.36-4.88-1.08-4.75-2.06-9.22-6.93-12.35-13.29-2.54,5.47-5.94,9.78-9.63,12.35,6.82,2.39,10.02,11.84,8.03,23.13,6.58-3.75,13.5-5.3,18.83-4.12,3.15.69,5.62,2.31,7.14,4.68,1.83,2.86,2.06,6.48.74,10.3,3.23,2.3,5.12,5.32,5.32,8.63.46,7.6-7.79,14-19.6,15.65,3.76,3.44,6.72,7.37,8.36,11.3,2.22,5.34,1.92,10.15-.85,13.53-2.18,2.65-5.53,4.01-9.57,3.88-1.18,3.77-3.46,6.5-6.55,7.71-1.17.46-2.39.69-3.66.69-1.59,0-3.23-.36-4.88-1.08-4.76-2.07-9.23-6.95-12.37-13.33-2.1,4.5-4.86,8.41-8.02,11.12-3.12,2.68-6.39,4.05-9.47,4.05-1.25,0-2.47-.23-3.64-.68-2.91-1.13-5.07-3.65-6.32-7.08l-3.77,5.94,11.87,13.83c.48.56.75,1.26.86,1.99,13.51-6.62,28.54-13.86,30.67-14.3.56-.12,2.06-.42,29,2.17v-21.63c0-2.2,1.79-3.99,3.99-3.99s3.99,1.78,3.99,3.99v22.41c5.27.52,11.29,1.13,18.2,1.84l5.69-6.75c-1.29-.62-2.45-1.43-3.33-2.51-2.78-3.37-3.1-8.17-.89-13.52,1.47-3.57,4.02-7.15,7.27-10.36-12.32-1.4-21.03-7.92-20.57-15.72.2-3.39,2.14-6.46,5.46-8.77-1.27-3.76-1.03-7.31.76-10.1,2.35-3.69,6.83-5.48,12.59-5.03,3.96.31,8.3,1.71,12.48,3.93-2.51-12.19.92-22.55,8.51-24.54,3.27-.86,6.8.05,10.02,2.49,3.18-2.37,6.63-3.24,9.85-2.4,7.36,1.91,10.85,11.73,8.78,23.45,6.59-3.74,13.5-5.3,18.84-4.13,3.15.69,5.62,2.31,7.14,4.68,1.83,2.86,2.06,6.48.74,10.3,3.23,2.3,5.13,5.32,5.32,8.64.46,7.6-7.79,14-19.6,15.64,3.76,3.44,6.72,7.37,8.36,11.3,2.22,5.34,1.92,10.14-.85,13.54-2.15,2.6-5.49,3.81-9.57,3.87-1.18,3.78-3.47,6.51-6.55,7.72-1.17.46-2.39.69-3.66.69-1.58,0-3.23-.36-4.88-1.07-4.76-2.07-9.24-6.95-12.37-13.33-2.1,4.5-4.86,8.41-8.02,11.11-3.12,2.68-6.39,4.06-9.47,4.06-1.25,0-2.47-.23-3.64-.68-2.39-.93-4.3-2.77-5.6-5.3l-8.05,9.55c-.85,1.01-2.14,1.52-3.46,1.4-19.2-1.98-50.46-5.05-54.91-5.08-2.93,1.11-18.21,8.44-31.77,15.11l5.63,131.93c.05,1.09-.35,2.15-1.1,2.93-.75.79-1.79,1.23-2.88,1.23h-38.61c-1.09,0-2.13-.44-2.88-1.23-.75-.78-1.15-1.84-1.11-2.93l5.48-128.42c-.43-.28-.83-.61-1.14-1.05-.15-.21-16.65-21.27-36.57-20.77-8.27.18-19.47.25-33.33.2.27.54.59,1.07.82,1.61,2.22,5.35,1.92,10.15-.85,13.53-2.18,2.65-5.46,3.98-9.57,3.88-1.18,3.77-3.46,6.5-6.55,7.71-1.19.47-2.42.7-3.69.7-3.08,0-6.33-1.37-9.45-4.03-3.01-2.56-5.68-6.22-7.75-10.44-2.1,4.52-4.87,8.45-8.04,11.16-3.13,2.68-6.39,4.05-9.47,4.05-1.25,0-2.47-.22-3.64-.68-3.16-1.23-5.47-4.03-6.66-7.9-4.02.07-7.27-1.29-9.37-3.86-2.78-3.37-3.09-8.17-.89-13.52,1.47-3.57,4.02-7.15,7.27-10.37-12.32-1.4-21.03-7.92-20.57-15.72h0Zm99.66-87.8c0,1.89,1.54,3.42,3.42,3.42s3.42-1.54,3.42-3.42-1.54-3.42-3.42-3.42-3.42,1.53-3.42,3.42Zm-26.99,29.84c.8.97,2.92,1.22,5.56.64,1.11-.25,2.28,0,3.2.67.92.67,1.52,1.71,1.62,2.85.26,2.76,1.18,4.76,2.39,5.23,1.14.43,3.06-.32,5.02-2,2.7-2.31,5.2-6.08,6.86-10.36,2.79-7.14,2.48-14.24.48-16.83-.69-.36-1.33-.79-1.93-1.28-3.02-.8-8.83.67-15.19,5.92-3.54,2.91-6.35,6.47-7.7,9.75-.98,2.39-1.11,4.46-.32,5.41Zm-2.16-50.48c-2.6-.21-4.58.32-5.25,1.37-.67,1.04-.23,3.19,1.11,5.48.58.99.71,2.18.35,3.26-.36,1.09-1.17,1.97-2.22,2.42-2.53,1.09-4.15,2.57-4.23,3.87-.15,2.61,5.92,6.94,15.43,7.49,8.3.48,14.54-2.36,16.12-4.69.11-.9.31-1.77.62-2.59-.38-3.11-3.61-8.06-10.28-12.31-3.87-2.47-8.13-4.04-11.66-4.31Zm39.47-20.75c-.14-.04-.3-.06-.46-.06-1.2,0-2.85,1.03-4.43,2.81-.76.85-1.84,1.33-2.98,1.33h-.01c-1.14,0-2.23-.49-2.98-1.35-1.83-2.07-3.75-3.17-5-2.83-2.54.67-4.77,7.78-2.36,16.98,1.71,6.53,5.54,11.63,8.68,13.44.85-.2,1.73-.34,2.64-.34.54,0,1.07.09,1.59.16,2.71-1.74,5.94-6.21,7.73-13.17,2.38-9.21.12-16.32-2.42-16.98Zm34.86,35.69c-.07-1.26-1.65-2.72-4.12-3.8-1.04-.46-1.84-1.35-2.19-2.43-.35-1.09-.21-2.27.37-3.26,1.4-2.36,1.83-4.52,1.13-5.62-.44-.69-1.4-1.02-2.12-1.18-.57-.12-1.24-.2-2.01-.2-3.07,0-7.65,1.12-12.73,4.38-5.84,3.76-9.37,8.91-10.11,12.39.66,1.21,1.1,2.54,1.29,3.97,2.05,2.02,7.31,3.77,15.1,3.3,9.5-.58,15.57-4.92,15.41-7.55Zm-18.34,19.83c-2.01-1.62-4.17-2.96-6.3-3.91-4.23-1.95-7.75-2.23-9.64-1.68-.54.48-1.13.9-1.75,1.27-1.73,2.51-2.17,8.47.91,16.35,2.78,7.05,6.86,10.89,9.51,12.03.68.29,1.65.58,2.45.27,1.19-.46,2.08-2.4,2.33-5.07.11-1.14.7-2.18,1.62-2.85.69-.5,1.51-.76,2.35-.76.29,0,.58.03.86.1,1.38.31,2.55.39,3.69.24,1.26-.13,1.76-.56,2.02-.88.52-.63.54-1.64.47-2.38-.28-2.89-2.69-7.95-8.51-12.73Zm189.33,53.3c0,1.89,1.54,3.42,3.42,3.42s3.42-1.54,3.42-3.42-1.54-3.42-3.42-3.42-3.42,1.53-3.42,3.42Zm-29.15-20.64c-2.58-.2-4.58.33-5.25,1.37-.67,1.04-.23,3.19,1.12,5.49.58.99.7,2.18.35,3.26-.36,1.09-1.17,1.97-2.22,2.42-2.53,1.09-4.15,2.57-4.23,3.87-.15,2.61,5.92,6.94,15.42,7.49,8.31.51,14.52-2.35,16.12-4.68.11-.9.31-1.78.63-2.6-.38-3.11-3.61-8.06-10.28-12.31-3.87-2.47-8.12-4.04-11.66-4.31Zm39.47-20.75c-.14-.04-.3-.05-.46-.05-1.2,0-2.85,1.03-4.43,2.8-.76.85-1.84,1.34-2.98,1.34h-.01c-1.14,0-2.23-.49-2.98-1.35-1.83-2.07-3.77-3.15-5-2.83-2.54.67-4.77,7.78-2.36,16.99,1.71,6.53,5.54,11.63,8.68,13.44.85-.2,1.72-.34,2.63-.34.55,0,1.07.09,1.59.16,2.71-1.73,5.94-6.21,7.73-13.17,2.39-9.22.12-16.33-2.42-16.99Zm34.86,35.69c-.08-1.26-1.65-2.72-4.12-3.8-1.05-.46-1.85-1.35-2.19-2.43-.35-1.09-.22-2.27.37-3.26,1.4-2.36,1.83-4.52,1.13-5.62-.44-.69-1.4-1.03-2.12-1.18-.57-.12-1.24-.2-2.01-.2-3.07,0-7.65,1.12-12.73,4.38-5.84,3.75-9.36,8.91-10.11,12.39.66,1.21,1.1,2.55,1.29,3.97,2.05,2.02,7.3,3.79,15.1,3.3,9.5-.58,15.57-4.92,15.41-7.55Zm-35.12,31.86c2.77,7.04,6.85,10.88,9.5,12.03.68.3,1.67.6,2.44.28,1.17-.46,2.07-2.4,2.33-5.08.11-1.13.7-2.17,1.63-2.84.68-.5,1.51-.76,2.34-.76.29,0,.58.03.86.09,2.7.6,4.9.35,5.72-.64.77-.95.64-3.02-.35-5.4-1.36-3.27-4.18-6.82-7.73-9.72-5.79-4.74-12.51-6.51-15.88-5.61-.55.48-1.13.91-1.77,1.28-1.8,2.58-2.08,8.8.9,16.37Zm-26.67,7.84c.26,2.76,1.18,4.76,2.39,5.23,1.14.46,3.06-.32,5.02-2,2.7-2.31,5.2-6.08,6.86-10.35,2.79-7.14,2.48-14.24.48-16.83-.69-.36-1.33-.79-1.93-1.28-3.02-.79-8.83.67-15.19,5.92-3.54,2.91-6.34,6.47-7.7,9.75-.98,2.39-1.11,4.46-.32,5.42.79.97,2.92,1.22,5.55.64,1.11-.25,2.28,0,3.2.67.93.67,1.52,1.71,1.63,2.84Zm-86.84-38.24c1.89,0,3.42-1.53,3.42-3.42s-1.54-3.42-3.42-3.42-3.42,1.54-3.42,3.42,1.54,3.42,3.42,3.42Zm-33.59,11.41c1.02-1.33,2.2-2.62,3.46-3.86-2.1-.24-4.15-.59-6.07-1.13l2.61,5Zm1.03-35.48c-2.57-.21-4.59.32-5.26,1.37-.67,1.04-.22,3.19,1.12,5.48.58.99.71,2.18.35,3.26-.36,1.09-1.17,1.97-2.22,2.42-2.53,1.09-4.15,2.57-4.23,3.87-.07,1.22,1.25,2.81,3.46,4.16,3.03,1.85,7.39,3.06,11.97,3.33,3.51.21,6.63-.19,9.22-.89.03,0,.05-.03.08-.03,0,0,.02,0,.03,0,3.47-.95,5.88-2.43,6.79-3.77.11-.9.31-1.77.62-2.6-.38-3.11-3.61-8.06-10.28-12.31-3.87-2.46-8.12-4.04-11.66-4.31Zm47.83-72.72c0,1.89,1.54,3.42,3.42,3.42s3.42-1.54,3.42-3.42-1.54-3.42-3.42-3.42-3.42,1.53-3.42,3.42Zm-29.15-20.64c-2.59-.21-4.58.32-5.25,1.37-.67,1.04-.23,3.19,1.12,5.49.58.99.71,2.18.35,3.26-.36,1.09-1.17,1.97-2.22,2.42-2.53,1.09-4.15,2.57-4.23,3.87-.07,1.22,1.25,2.81,3.46,4.16,3.03,1.85,7.39,3.07,11.97,3.33,2.32.14,4.46,0,6.4-.29.15-.05.3-.06.45-.09,4.78-.82,8.15-2.68,9.26-4.31.11-.9.31-1.77.62-2.6-.38-3.11-3.61-8.05-10.28-12.31-3.87-2.46-8.12-4.04-11.66-4.31Zm39.47-20.75c-.14-.04-.3-.05-.46-.05-1.2,0-2.85,1.03-4.43,2.8-.76.85-1.72,1.45-2.99,1.34-1.14,0-2.23-.49-2.98-1.35-1.83-2.07-3.78-3.16-5-2.83-2.54.67-4.77,7.78-2.36,16.98,1.71,6.52,5.54,11.63,8.68,13.44.85-.2,1.72-.34,2.63-.34.55,0,1.07.09,1.59.16,2.71-1.73,5.94-6.21,7.73-13.17,2.39-9.21.12-16.32-2.42-16.98Zm34.86,35.7c-.08-1.26-1.65-2.72-4.13-3.81-1.04-.46-1.84-1.34-2.19-2.43-.35-1.09-.22-2.27.37-3.26,1.4-2.37,1.83-4.52,1.13-5.62-.44-.69-1.4-1.03-2.12-1.18-.57-.12-1.24-.2-2.01-.2-3.08,0-7.65,1.12-12.74,4.38-5.84,3.75-9.36,8.91-10.11,12.39.66,1.21,1.1,2.55,1.29,3.97,2.04,2.02,7.29,3.78,15.1,3.3,9.5-.57,15.57-4.92,15.41-7.54Zm-35.12,31.85c2.77,7.04,6.85,10.88,9.5,12.03.68.3,1.66.58,2.44.28,1.17-.46,2.07-2.41,2.33-5.08.11-1.14.7-2.17,1.63-2.84.69-.5,1.51-.76,2.34-.76.29,0,.58.03.86.1,2.71.6,4.9.35,5.72-.65.78-.95.64-3.02-.35-5.4-1.36-3.27-4.18-6.82-7.73-9.72-5.79-4.74-12.51-6.52-15.87-5.61-.55.48-1.14.91-1.77,1.28-1.81,2.58-2.09,8.8.9,16.37Zm-12.38.74c3.02-7.75,2.22-14.53.45-16.86-.7-.37-1.35-.81-1.96-1.31-2.12-.52-5.88-.02-10.75,2.83-1.45.85-2.92,1.89-4.38,3.1-7.35,6.07-9.7,13.15-8.02,15.19.77.95,2.93,1.19,5.53.61,1.18-.26,2.42.02,3.37.78.68.55,1.09,1.32,1.3,2.15,0,.01,0,.03.01.04.04.17.14.33.16.51.06.24.09.49.1.74.32,2.42,1.16,4.1,2.29,4.53,2.44.94,8.45-3.48,11.9-12.33Zm-6.04,25.07c-.14-.04-.3-.05-.46-.05-1.2,0-2.85,1.03-4.43,2.81-.76.85-1.84,1.33-2.98,1.33h-.01c-1.14,0-2.22-.5-2.98-1.35-1.83-2.07-3.76-3.16-5-2.83-2.54.67-4.77,7.78-2.36,16.99,1.71,6.53,5.54,11.63,8.68,13.44.85-.2,1.72-.34,2.63-.34.54,0,1.07.09,1.59.16,2.71-1.73,5.94-6.21,7.73-13.17,2.39-9.21.12-16.32-2.42-16.98Zm34.86,35.7c-.08-1.26-1.66-2.72-4.13-3.81-1.04-.46-1.84-1.35-2.19-2.43-.35-1.09-.22-2.27.37-3.26,1.4-2.36,1.84-4.52,1.13-5.62-.44-.69-1.4-1.03-2.13-1.19-.57-.12-1.24-.2-2.01-.2-3.08,0-7.65,1.12-12.73,4.38-5.84,3.75-9.36,8.91-10.11,12.39.66,1.21,1.1,2.55,1.29,3.97,2.04,2.02,7.29,3.77,15.1,3.3,9.51-.58,15.57-4.92,15.41-7.55Zm-25.62,43.89c.69.29,1.67.59,2.44.28,1.18-.46,2.07-2.41,2.33-5.08.11-1.13.7-2.17,1.62-2.84.69-.5,1.51-.76,2.34-.76.29,0,.58.03.86.09,2.71.6,4.9.34,5.72-.65.78-.95.64-3.01-.35-5.4-1.36-3.27-4.18-6.82-7.73-9.72-5.79-4.74-12.51-6.51-15.87-5.61-.55.48-1.14.91-1.77,1.29-1.81,2.58-2.09,8.8.9,16.37,2.77,7.04,6.84,10.88,9.5,12.03Zm-37.79-7.04c.92.67,1.51,1.71,1.62,2.84.26,2.76,1.18,4.76,2.39,5.23,1.15.45,3.06-.32,5.02-2,2.7-2.31,5.2-6.08,6.86-10.35,2.79-7.14,2.48-14.24.48-16.83-.69-.36-1.33-.79-1.93-1.28-3.02-.79-8.83.67-15.19,5.92-3.54,2.91-6.34,6.46-7.69,9.75-.98,2.39-1.11,4.46-.32,5.41.79.97,2.92,1.21,5.55.65,1.12-.25,2.28,0,3.2.67Zm1.68,166.97l-.36-8.54h-13.5c-2.2,0-3.99-1.78-3.99-3.99s1.78-3.99,3.99-3.99h13.16s-1.6-37.51-1.6-37.51h-9.03c-2.2,0-3.99-1.78-3.99-3.99s1.79-3.99,3.99-3.99h8.69l-1.66-38.91h-9.56c-2.2,0-3.99-1.78-3.99-3.99s1.78-3.99,3.99-3.99h9.22l-1.1-25.74-12.9-15.02c-1.14-1.33-1.28-3.26-.34-4.74l4.45-7c-.77-.52-1.47-1.12-2.06-1.84-2.44-2.96-2.98-7.02-1.58-11.58l-7.87-15.05c-.57-1.09-.58-2.35-.09-3.45-3-2.56-4.61-5.62-4.63-8.87,0,.02,0,.03-.01.05l-7.71,17.87,19.42,21.51c.91,1.01,1.24,2.4.89,3.71l-6.31,23.46-2.12,49.6h9.08c2.2,0,3.99,1.78,3.99,3.99s-1.78,3.99-3.99,3.99h-9.42l-1.56,36.63h10.99c2.2,0,3.99,1.78,3.99,3.99s-1.78,3.99-3.99,3.99h-11.32l-1.42,33.38h30.27ZM47.36,175.62c0,1.89,1.54,3.42,3.42,3.42s3.42-1.54,3.42-3.42-1.54-3.42-3.42-3.42-3.42,1.53-3.42,3.42Zm10.33-41.39c-.14-.04-.3-.06-.46-.06-1.2,0-2.85,1.03-4.44,2.81-.76.85-1.84,1.33-2.98,1.33h-.01c-1.14,0-2.23-.49-2.98-1.35-1.83-2.07-3.74-3.17-5-2.83-2.54.67-4.77,7.78-2.37,16.99,1.71,6.52,5.54,11.63,8.68,13.44.85-.2,1.73-.34,2.64-.34.55,0,1.07.09,1.59.16,2.71-1.74,5.94-6.22,7.73-13.17,2.39-9.21.13-16.32-2.41-16.98Zm34.86,35.69c-.07-1.26-1.66-2.72-4.13-3.81-1.04-.46-1.84-1.35-2.19-2.43-.35-1.09-.21-2.27.37-3.26,1.4-2.36,1.83-4.52,1.13-5.62-.44-.69-1.4-1.02-2.12-1.18-.57-.12-1.24-.2-2.01-.2-3.07,0-7.65,1.12-12.73,4.38-5.84,3.76-9.37,8.91-10.11,12.39.66,1.21,1.1,2.54,1.29,3.97,2.05,2.02,7.31,3.77,15.1,3.3,9.5-.58,15.56-4.92,15.41-7.55h0Zm-35.12,31.85c1.68,4.27,4.19,8.04,6.89,10.34,1.97,1.67,3.91,2.42,5.04,1.98,1.18-.46,2.07-2.41,2.33-5.08.11-1.14.7-2.17,1.63-2.84.68-.5,1.51-.76,2.34-.76.29,0,.58.03.86.09,2.71.6,4.9.35,5.72-.65.77-.95.64-3.02-.35-5.4-1.36-3.27-4.18-6.82-7.73-9.72-5.79-4.74-12.54-6.52-15.88-5.6-.54.48-1.13.9-1.76,1.27-1.81,2.58-2.1,8.8.89,16.37h0Zm-37.05,3.68c.8.97,2.92,1.21,5.55.65,1.12-.24,2.28,0,3.2.67.92.67,1.51,1.71,1.62,2.84.26,2.75,1.18,4.76,2.4,5.23,1.14.45,3.06-.32,5.02-2,2.7-2.31,5.2-6.08,6.86-10.35,2.86-7.34,2.32-13.78.76-16.43l-4.11-1.89c-3.24.07-8.08,1.82-13.28,6.12-3.54,2.91-6.35,6.47-7.7,9.75-.99,2.39-1.11,4.46-.33,5.41Zm3.03-26.57c8.29.46,14.52-2.36,16.12-4.69.11-.9.31-1.78.63-2.61-.38-3.11-3.61-8.06-10.28-12.3-3.88-2.47-8.13-4.04-11.66-4.31-2.59-.2-4.58.32-5.25,1.37-.67,1.04-.23,3.19,1.11,5.48.58.99.71,2.18.35,3.26-.36,1.09-1.17,1.97-2.22,2.42-2.53,1.09-4.15,2.57-4.23,3.87-.15,2.62,5.93,6.94,15.42,7.49Z"/>
    <path class="cls-2" d="m250.8,235.43c.3-.61.75-1.13,1.3-1.51.37-.26.78-.45,1.22-.57,4.7-1.29,11.37.78,16.57,5.18,7.43,6.27,10,14.61,5.96,19.4-1.54,1.81-3.79,2.82-6.45,2.94-1.01,2.39-2.69,4.13-4.87,4.95-.9.34-1.83.5-2.77.5-5.16,0-10.61-4.91-13.51-12.61-2.42-6.38-2.4-12.55.03-16.48.59-.95,1.51-1.56,2.52-1.79Zm4.91,15.46c2.05,5.45,5.44,7.67,5.97,7.48.12-.08.59-.7.77-2.25.13-1.13.74-2.15,1.67-2.81.68-.48,1.48-.72,2.29-.72.31,0,.62.04.93.11,1.58.38,2.33.14,2.4.1.33-.68-.55-4.43-5-8.18-3.65-3.09-7.56-3.98-9.18-3.61-.1.03-.21.06-.31.08-.06.11-.12.22-.18.33-.88,1.41-1.05,4.98.65,9.47Z"/>
    <path class="cls-2" d="m103.98,230.09c1.17-.14,2.24.2,3.06.87,1.11-.28,2.29-.09,3.29.61,4.12,2.92,6.81,9.63,6.68,16.69-.17,10-5.08,17.47-11.45,17.47h-.13c-2.46-.05-4.75-1.22-6.59-3.31-2.6.79-5.11.6-7.2-.62-5.56-3.24-5.94-12.24-.89-20.94,3.55-6.12,8.5-10.16,13.24-10.78Zm-8.34,24.83c.14.04,1,.05,2.47-.89.96-.62,2.14-.79,3.23-.48,1.1.31,2.01,1.08,2.51,2.1.83,1.72,1.61,2.12,1.7,2.12.85-.09,3.37-3.54,3.48-9.63.09-5.18-1.93-9.06-3.33-10.05-.08-.05-.15-.11-.22-.17-.15.04-.3.07-.46.09-1.77.23-4.84,2.48-7.39,6.88-3.1,5.33-2.69,9.55-2,10.04Z"/>
    <path class="cls-2" d="m228.53,293.23c1.11-.18,2.17.11,3,.73.93-.24,1.9-.14,2.74.26.17.08.33.17.49.28,4.07,2.71,6.86,9.1,6.94,15.91.12,9.73-4.5,17.13-10.76,17.21h-.08c-2.34,0-4.55-1.04-6.36-2.95-2.47.8-4.89.67-6.93-.44-5.49-2.99-6.14-11.69-1.51-20.24,3.25-6.01,7.91-10.03,12.48-10.77Zm-7.2,23.98c.14.03.92-.03,2.19-.9.94-.64,2.12-.86,3.23-.58,1.11.28,2.04,1.02,2.57,2.03.74,1.43,1.43,1.85,1.49,1.88.72-.2,2.99-3.32,2.91-9.14-.06-4.81-1.98-8.35-3.31-9.32-.08-.06-.16-.11-.24-.17-.12.03-.24.06-.37.08-1.65.26-4.45,2.47-6.74,6.69-2.78,5.13-2.23,8.94-1.74,9.42Z"/>
    <path class="cls-2" d="m112.18,293.89c1-.56,2.14-.64,3.15-.33.79-.57,1.76-.84,2.72-.75.19.02.38.05.57.09,4.91,1.17,9.9,6.39,12.42,13,3.6,9.4,1.78,18.23-4.24,20.54-2.31.87-4.86.64-7.34-.62-1.78,1.43-3.76,2.19-5.76,2.19-.38,0-.76-.03-1.14-.09-6.37-.92-10.08-9.14-8.64-19.1,1.01-7.01,4.1-12.6,8.27-14.94Zm1.51,26.15c.14,0,.94-.32,1.96-1.74.66-.93,1.69-1.54,2.83-1.66.14-.02.29-.02.42-.02.99,0,1.95.37,2.69,1.04,1.42,1.29,2.27,1.38,2.36,1.33.76-.4,1.82-4.54-.36-10.23-1.82-4.76-5.06-7.59-6.75-8.06-.12-.03-.24-.06-.37-.1-.12.09-.25.17-.39.25-1.56.87-3.56,4.1-4.29,9.13-.88,6.09,1.06,9.86,1.88,10.06Z"/>
    <path class="cls-1" d="m172.03,258.42c-.19.11-.4.2-.61.26-.21.06-.43.09-.66.09-.68,0-1.22-.22-1.62-.65-.4-.43-.6-1.02-.6-1.76s.2-1.33.6-1.76c.4-.43.94-.65,1.62-.65.23,0,.45.03.66.09.21.06.41.15.61.26v.96c-.2-.15-.39-.26-.58-.33-.19-.07-.39-.11-.6-.11-.38,0-.67.14-.89.41-.22.28-.32.65-.32,1.13s.11.86.32,1.13c.22.27.51.41.89.41.21,0,.41-.03.6-.1.19-.07.38-.18.58-.33v.96Z"/>
    <path class="cls-1" d="m175.15,256.14c-.09-.05-.17-.08-.26-.1-.09-.02-.17-.03-.26-.03-.25,0-.44.09-.58.28-.14.18-.21.45-.21.79v1.61h-.98v-3.49h.98v.57c.13-.23.27-.39.43-.5.16-.11.36-.16.59-.16.03,0,.07,0,.1,0,.04,0,.1,0,.17.02v1.01Z"/>
    <path class="cls-1" d="m178.7,256.92v.32h-2.29c.02.26.11.46.25.59.14.13.34.2.6.2.21,0,.42-.03.63-.1.22-.07.44-.18.67-.32v.86c-.23.1-.46.18-.7.23-.23.05-.46.08-.69.08-.56,0-.99-.16-1.3-.48-.31-.32-.46-.77-.46-1.35s.15-1.02.45-1.34c.3-.33.72-.49,1.25-.49.48,0,.87.17,1.16.5.29.33.44.77.44,1.33Zm-1.01-.37c0-.21-.06-.38-.16-.51-.11-.13-.25-.2-.43-.2-.19,0-.35.06-.46.18-.12.12-.19.3-.22.53h1.28Z"/>
    <path class="cls-1" d="m180.82,257.11c-.21,0-.36.04-.46.12-.1.08-.15.2-.15.35,0,.14.04.25.12.33.08.08.2.12.35.12.18,0,.34-.08.47-.23.13-.15.19-.34.19-.57v-.13h-.51Zm1.5-.42v1.99h-.99v-.52c-.13.21-.28.37-.45.46-.16.1-.36.15-.6.15-.32,0-.58-.11-.78-.32-.2-.21-.3-.48-.3-.82,0-.41.12-.71.37-.9.25-.19.64-.29,1.17-.29h.58v-.09c0-.18-.06-.3-.18-.38-.12-.08-.31-.12-.57-.12-.21,0-.4.02-.59.07-.18.05-.35.12-.51.22v-.85c.21-.05.42-.1.63-.13.21-.03.43-.05.64-.05.55,0,.95.12,1.2.37.25.25.37.65.37,1.21Z"/>
    <path class="cls-1" d="m184.31,254.2v.99h1.01v.8h-1.01v1.48c0,.16.03.27.09.33.06.06.17.08.34.08h.5v.8h-.84c-.39,0-.66-.09-.82-.28-.16-.18-.24-.5-.24-.94v-1.48h-.49v-.8h.49v-.99h.98Z"/>
    <path class="cls-1" d="m188.98,256.92v.32h-2.29c.02.26.11.46.25.59.14.13.34.2.6.2.21,0,.42-.03.63-.1.22-.07.44-.18.67-.32v.86c-.23.1-.46.18-.7.23-.23.05-.46.08-.69.08-.56,0-.99-.16-1.3-.48-.31-.32-.46-.77-.46-1.35s.15-1.02.45-1.34c.3-.33.72-.49,1.25-.49.48,0,.87.17,1.16.5.29.33.44.77.44,1.33Zm-1.01-.37c0-.21-.05-.38-.16-.51-.11-.13-.25-.2-.43-.2-.19,0-.34.06-.46.18-.12.12-.19.3-.22.53h1.28Z"/>
    <path class="cls-1" d="m191.82,255.7v-1.87h.99v4.85h-.99v-.51c-.13.21-.28.36-.45.46-.16.09-.35.14-.56.14-.38,0-.69-.17-.93-.51-.24-.34-.36-.78-.36-1.32s.12-.98.36-1.32c.24-.34.55-.51.93-.51.21,0,.4.05.56.15.16.1.31.25.45.45Zm-.65,2.26c.21,0,.37-.09.48-.26.11-.18.17-.43.17-.76s-.06-.58-.17-.76c-.11-.18-.27-.26-.48-.26s-.37.09-.48.26c-.11.17-.17.43-.17.76s.06.59.17.76c.11.17.27.26.48.26Z"/>
    <path class="cls-1" d="m197.34,257.96c.21,0,.37-.09.48-.26.11-.18.17-.43.17-.76s-.06-.58-.17-.76c-.11-.17-.27-.26-.48-.26s-.37.09-.48.26c-.11.18-.17.43-.17.76s.06.58.17.76c.11.18.27.26.48.26Zm-.65-2.26c.13-.2.28-.35.45-.45.17-.1.36-.15.57-.15.38,0,.69.17.93.51.24.34.37.78.37,1.32s-.12.98-.37,1.32c-.24.34-.55.51-.93.51-.21,0-.4-.05-.57-.15-.17-.1-.31-.25-.45-.45v.51h-.98v-4.85h.98v1.87Z"/>
    <path class="cls-1" d="m199.32,255.19h.98l.83,2.37.7-2.37h.98l-1.29,3.82c-.13.39-.28.66-.45.82-.17.15-.4.23-.68.23h-.57v-.74h.31c.17,0,.29-.03.36-.09.08-.06.14-.17.18-.32l.03-.09-1.37-3.63Z"/>
    <path class="cls-1" d="m207.03,255.82c.17,0,.29-.04.38-.12.09-.08.13-.21.13-.37s-.04-.28-.13-.36c-.09-.09-.21-.13-.38-.13h-.58v.99h.58Zm.04,2.04c.21,0,.37-.05.48-.15.11-.1.16-.26.16-.46s-.05-.35-.16-.46c-.1-.1-.26-.15-.48-.15h-.62v1.22h.62Zm.98-1.68c.23.08.4.22.53.42.12.2.19.45.19.74,0,.45-.13.79-.4,1-.27.22-.67.33-1.22.33h-1.75v-4.66h1.59c.57,0,.98.1,1.23.29.26.19.38.51.38.94,0,.23-.05.42-.14.58-.09.16-.23.27-.41.35Z"/>
    <path class="cls-1" d="m212.69,256.92v.32h-2.29c.02.26.11.46.25.59.14.13.34.2.6.2.21,0,.42-.03.63-.1.22-.07.44-.18.67-.32v.86c-.23.1-.46.18-.7.23-.23.05-.46.08-.69.08-.56,0-.99-.16-1.3-.48-.31-.32-.46-.77-.46-1.35s.15-1.02.45-1.34c.3-.33.72-.49,1.25-.49.48,0,.87.17,1.16.5.29.33.44.77.44,1.33Zm-1.01-.37c0-.21-.06-.38-.16-.51-.11-.13-.25-.2-.43-.2-.19,0-.34.06-.46.18-.12.12-.19.3-.22.53h1.28Z"/>
    <path class="cls-1" d="m213.43,253.83h.98v4.85h-.98v-4.85Z"/>
    <path class="cls-1" d="m215.35,253.83h.98v4.85h-.98v-4.85Z"/>
    <path class="cls-1" d="m218.74,255.9c-.22,0-.38.09-.5.27-.11.18-.17.43-.17.77s.06.59.17.77c.11.18.28.27.5.27s.38-.09.49-.27c.11-.18.17-.43.17-.77s-.06-.59-.17-.77c-.11-.18-.28-.27-.49-.27Zm0-.8c.53,0,.94.16,1.24.49.3.32.45.77.45,1.35s-.15,1.02-.45,1.35c-.3.32-.71.49-1.24.49s-.95-.16-1.25-.49c-.3-.32-.45-.78-.45-1.35s.15-1.02.45-1.35c.3-.32.72-.49,1.25-.49Z"/>
    <path class="cls-1" d="m220.87,255.19h.95l.52,2.41.52-2.41h.82l.52,2.38.52-2.38h.95l-.81,3.49h-1.07l-.52-2.4-.51,2.4h-1.07l-.81-3.49Z"/>
    <path class="cls-1" d="m229.39,256.92v.32h-2.29c.02.26.11.46.25.59.14.13.34.2.6.2.21,0,.42-.03.63-.1.22-.07.44-.18.67-.32v.86c-.23.1-.46.18-.7.23-.23.05-.46.08-.7.08-.56,0-.99-.16-1.3-.48-.31-.32-.46-.77-.46-1.35s.15-1.02.45-1.34c.3-.33.72-.49,1.25-.49.48,0,.87.17,1.16.5.29.33.44.77.44,1.33Zm-1.01-.37c0-.21-.05-.38-.16-.51-.11-.13-.25-.2-.43-.2-.19,0-.34.06-.46.18s-.19.3-.22.53h1.28Z"/>
    <path class="cls-1" d="m233.22,256.55v2.12h-.99v-1.63c0-.3,0-.51-.02-.62-.01-.12-.03-.2-.06-.25-.04-.07-.09-.13-.16-.17-.07-.04-.14-.06-.22-.06-.21,0-.37.09-.48.27-.12.18-.18.43-.18.75v1.72h-.98v-3.49h.98v.51c.15-.2.31-.35.47-.45s.35-.15.55-.15c.35,0,.62.12.81.37.18.25.28.61.28,1.08Z"/>
    <path class="cls-1" d="m170.76,260.21v.73h-.54c-.14,0-.24.03-.29.09-.05.06-.08.16-.08.3v.24h.84v.8h-.84v2.7h-.98v-2.7h-.49v-.8h.49v-.24c0-.38.09-.66.28-.84.18-.18.48-.27.87-.27h.75Z"/>
    <path class="cls-1" d="m173.47,262.52c-.09-.05-.17-.08-.26-.1-.09-.02-.17-.03-.26-.03-.25,0-.44.09-.58.28-.14.18-.21.45-.21.79v1.61h-.98v-3.49h.98v.57c.13-.23.27-.4.43-.5.16-.1.36-.16.59-.16.03,0,.07,0,.1,0,.04,0,.1,0,.17.02v1.01Z"/>
    <path class="cls-1" d="m175.42,262.28c-.22,0-.38.09-.5.27-.11.18-.17.43-.17.77s.06.59.17.77c.11.18.28.27.5.27s.38-.09.49-.27c.11-.18.17-.43.17-.77s-.06-.59-.17-.77c-.11-.18-.28-.27-.49-.27Zm0-.8c.53,0,.94.16,1.24.49.3.32.44.77.44,1.35s-.15,1.02-.44,1.35c-.3.32-.71.49-1.24.49s-.94-.16-1.25-.49c-.3-.32-.45-.77-.45-1.35s.15-1.02.45-1.35c.3-.32.72-.49,1.25-.49Z"/>
    <path class="cls-1" d="m180.66,262.15c.12-.22.27-.38.44-.49.17-.11.36-.17.57-.17.35,0,.62.12.8.37.19.25.28.61.28,1.08v2.12h-.99v-1.82s0-.05,0-.08c0-.03,0-.07,0-.12,0-.25-.03-.43-.1-.54-.06-.11-.17-.17-.31-.17-.19,0-.33.09-.43.26-.1.18-.15.43-.16.76v1.71h-.99v-1.82c0-.39-.03-.64-.09-.75-.06-.11-.16-.17-.31-.17-.19,0-.34.09-.44.27-.1.18-.15.43-.15.75v1.72h-.99v-3.49h.99v.51c.12-.19.26-.34.42-.44.15-.1.33-.15.52-.15.21,0,.4.06.56.17.16.12.29.28.37.49Z"/>
    <path class="cls-1" d="m186.69,260.58v.99h1.01v.8h-1.01v1.48c0,.16.03.27.09.33.06.06.17.08.34.08h.5v.8h-.84c-.39,0-.66-.09-.82-.28-.16-.18-.24-.5-.24-.94v-1.48h-.49v-.8h.49v-.99h.98Z"/>
    <path class="cls-1" d="m191.4,262.94v2.12h-.99v-1.62c0-.31,0-.52-.02-.63-.01-.11-.03-.2-.06-.25-.04-.07-.09-.13-.16-.17-.07-.04-.14-.06-.22-.06-.21,0-.37.09-.48.27-.12.18-.18.43-.18.75v1.72h-.98v-4.85h.98v1.87c.15-.2.31-.35.47-.45.17-.1.35-.14.55-.14.35,0,.62.12.81.37.18.25.28.61.28,1.08Z"/>
    <path class="cls-1" d="m195.37,263.31v.32h-2.29c.02.26.11.46.25.59.14.13.34.2.6.2.21,0,.42-.03.63-.1.22-.07.44-.18.67-.32v.86c-.23.1-.46.18-.7.23-.23.05-.46.08-.7.08-.56,0-.99-.16-1.3-.48-.31-.32-.46-.77-.46-1.35s.15-1.02.45-1.34c.3-.33.72-.49,1.25-.49.48,0,.87.17,1.16.5.29.33.44.77.44,1.33Zm-1.01-.37c0-.21-.05-.38-.16-.51-.11-.13-.25-.2-.43-.2-.19,0-.34.06-.46.18-.12.12-.19.3-.22.53h1.28Z"/>
    <path class="cls-1" d="m198.11,260.41h1.18l1.49,3.19v-3.19h1v4.65h-1.18l-1.49-3.19v3.19h-1v-4.65Z"/>
    <path class="cls-1" d="m204.23,262.28c-.22,0-.38.09-.5.27-.12.18-.17.43-.17.77s.06.59.17.77c.12.18.28.27.5.27s.38-.09.49-.27c.11-.18.17-.43.17-.77s-.06-.59-.17-.77c-.11-.18-.28-.27-.49-.27Zm0-.8c.53,0,.94.16,1.24.49.3.32.45.77.45,1.35s-.15,1.02-.45,1.35c-.3.32-.71.49-1.24.49s-.95-.16-1.25-.49c-.3-.32-.45-.77-.45-1.35s.15-1.02.45-1.35c.3-.32.71-.49,1.25-.49Z"/>
    <path class="cls-1" d="m206.6,263.7v-2.13h.99v.35c0,.19,0,.43,0,.72,0,.29,0,.48,0,.57,0,.28,0,.48.02.61.01.12.04.21.07.27.04.07.09.13.16.17.07.04.14.06.23.06.2,0,.36-.09.48-.27.12-.18.18-.43.18-.74v-1.72h.98v3.49h-.98v-.51c-.15.2-.31.36-.47.45-.16.1-.35.15-.55.15-.36,0-.62-.12-.81-.37-.19-.25-.28-.61-.28-1.08Z"/>
    <path class="cls-1" d="m213.72,262.94v2.12h-.99v-1.63c0-.3,0-.51-.02-.62-.01-.11-.03-.2-.06-.25-.04-.07-.09-.13-.16-.17-.07-.04-.14-.06-.22-.06-.21,0-.37.09-.48.27-.12.18-.18.43-.18.75v1.72h-.98v-3.49h.98v.51c.15-.2.31-.35.47-.45.17-.1.35-.14.55-.14.35,0,.62.12.81.37.18.25.28.61.28,1.08Z"/>
    <path class="cls-1" d="m216.62,260.41h1.75c.52,0,.92.13,1.2.39.28.26.42.64.42,1.12s-.14.86-.42,1.13c-.28.26-.68.39-1.2.39h-.69v1.62h-1.06v-4.65Zm1.06.87v1.3h.58c.2,0,.36-.05.47-.17.11-.11.17-.27.17-.48s-.06-.37-.17-.48c-.11-.11-.27-.17-.47-.17h-.58Z"/>
    <path class="cls-1" d="m222.98,262.52c-.09-.05-.17-.08-.26-.1-.09-.02-.17-.03-.26-.03-.25,0-.44.09-.58.28-.14.18-.21.45-.21.79v1.61h-.98v-3.49h.98v.57c.13-.23.27-.4.43-.5.16-.1.36-.16.59-.16.03,0,.07,0,.1,0,.04,0,.1,0,.17.02v1.01Z"/>
    <path class="cls-1" d="m224.93,262.28c-.22,0-.38.09-.5.27-.12.18-.17.43-.17.77s.06.59.17.77c.11.18.28.27.5.27s.38-.09.49-.27c.11-.18.17-.43.17-.77s-.06-.59-.17-.77c-.11-.18-.28-.27-.49-.27Zm0-.8c.53,0,.94.16,1.24.49.3.32.45.77.45,1.35s-.15,1.02-.45,1.35c-.3.32-.71.49-1.24.49s-.95-.16-1.25-.49c-.3-.32-.45-.77-.45-1.35s.15-1.02.45-1.35c.3-.32.72-.49,1.25-.49Z"/>
    <path class="cls-1" d="m227.33,261.57h.98v3.43c0,.47-.1.82-.3,1.07-.2.25-.48.37-.86.37h-.49v-.74h.17c.19,0,.32-.05.39-.14.07-.09.1-.28.1-.56v-3.43Zm0-1.36h.98v.91h-.98v-.91Z"/>
    <path class="cls-1" d="m232.32,263.31v.32h-2.29c.02.26.11.46.25.59.14.13.34.2.6.2.21,0,.42-.03.64-.1.22-.07.44-.18.67-.32v.86c-.23.1-.46.18-.7.23-.23.05-.46.08-.69.08-.56,0-.99-.16-1.3-.48-.31-.32-.46-.77-.46-1.35s.15-1.02.45-1.34c.3-.33.72-.49,1.25-.49.48,0,.87.17,1.16.5.29.33.44.77.44,1.33Zm-1.01-.37c0-.21-.06-.38-.16-.51-.11-.13-.25-.2-.43-.2-.19,0-.34.06-.46.18-.12.12-.19.3-.22.53h1.28Z"/>
    <path class="cls-1" d="m235.54,261.68v.91c-.13-.1-.27-.18-.4-.23-.13-.05-.27-.08-.42-.08-.27,0-.49.09-.64.27-.15.18-.23.44-.23.76s.07.58.23.76c.15.18.37.27.64.27.16,0,.3-.02.44-.08.14-.05.27-.13.38-.23v.91c-.15.07-.31.11-.47.14-.16.03-.32.05-.47.05-.56,0-.99-.16-1.3-.49-.31-.32-.47-.77-.47-1.35s.16-1.02.47-1.35c.31-.32.75-.49,1.3-.49.16,0,.32.02.47.05.16.03.31.08.47.14Z"/>
    <path class="cls-1" d="m237.46,260.58v.99h1.01v.8h-1.01v1.48c0,.16.03.27.09.33.06.06.17.08.34.08h.5v.8h-.84c-.39,0-.66-.09-.83-.28-.16-.18-.24-.5-.24-.94v-1.48h-.49v-.8h.49v-.99h.98Z"/>
  </g>
</svg>