<?xml version="1.0" encoding="utf-8"?>
<!-- Generator: Adobe Illustrator 28.0.0, SVG Export Plug-In . SVG Version: 6.00 Build 0)  -->
<svg version="1.1" id="Layer_2_00000108301306653648923480000006176714343357441945_"
	 xmlns="http://www.w3.org/2000/svg" xmlns:xlink="http://www.w3.org/1999/xlink" x="0px" y="0px" viewBox="0 0 405 405"
	 style="enable-background:new 0 0 405 405;" xml:space="preserve">
<style type="text/css">
	.st0{fill:#F7BECA;stroke:#F7BECA;stroke-width:1;stroke-miterlimit:9.9996;}
	.st1{fill:#F08790;stroke:#F08790;stroke-width:1;stroke-miterlimit:9.9996;}
	.st2{fill:#FFE9AB;stroke:#FFE9AB;stroke-width:1;stroke-miterlimit:9.9996;}
</style>
<g>
	<path class="st0" d="M258.5,69.9c0,30.9-25.1,105-56,105s-56-74.1-56-105s25.1-56,56-56S258.5,39,258.5,69.9z"/>
	<path class="st0" d="M358.6,224.1c-29.4,9.6-107.6,8.6-117.2-20.8s53.1-76.1,82.6-85.7c29.4-9.6,61,6.5,70.6,35.9
		S388.1,214.5,358.6,224.1L358.6,224.1z"/>
	<path class="st1" d="M243,367c-18.2-25-41.4-99.7-16.4-117.9c25-18.2,88.8,27,107,52c18.2,25,12.6,60-12.4,78.2S261.2,392,243,367
		L243,367z"/>
	<path class="st1" d="M71.4,301.1c18.2-25,82-70.2,107-52c25,18.2,1.8,92.8-16.4,117.9c-18.2,25-53.2,30.6-78.2,12.4
		S53.2,326.1,71.4,301.1L71.4,301.1z"/>
	<path class="st0" d="M80.9,117.6c29.4,9.6,92.1,56.3,82.6,85.7c-9.6,29.4-87.7,30.4-117.2,20.8c-29.4-9.5-45.5-41.1-35.9-70.6
		S51.5,108,80.9,117.6L80.9,117.6z"/>
</g>
<circle class="st2" cx="203" cy="215.4" r="18.5"/>
</svg>
